# xmcd
#
# Track frame offsets: 
#        150
#        20975
#        34850
#        64153
#        85403
#        101190
#        119908
#        146410
#        172665
#        191825
#        208740
#
# Disc length: 3077 seconds
#
# Revision: 1
# Processed by: cddbd v1.5.2PL0 Copyright (c) Steve Scherf et al.
# Submitted via: ExactAudioCopyFreeDBPlugin 1.0
#
DISCID=a80c030b
DTITLE=Backbone - Backbone
DYEAR=1900
DGENRE=
TTITLE0=Preserve The Blues
TTITLE1=Sittin' Here Thinkin'
TTITLE2=Make Me Laugh
TTITLE3=Breathe Deeply
TTITLE4=Nothing's Different
TTITLE5=Fly Away
TTITLE6=Only Son
TTITLE7=New Speedway Boogie
TTITLE8=Stayed Away Too Long
TTITLE9=Earthchild
TTITLE10=Ocean Laughter
EXTD=
EXTT0=
EXTT1=
EXTT2=
EXTT3=
EXTT4=
EXTT5=
EXTT6=
EXTT7=
EXTT8=
EXTT9=
EXTT10=
PLAYORDER=
